<svg width="741" height="447" viewBox="0 0 741 447" fill="none" xmlns="http://www.w3.org/2000/svg">
<path d="M0.5 382C0.5 383.418 0.545794 384.826 0.635994 386.222L1.13495 386.19C1.31722 389.01 1.6822 391.781 2.21818 394.49L1.72769 394.587C2.2789 397.374 3.00958 400.096 3.90717 402.74L4.38065 402.58C5.28361 405.24 6.35681 407.822 7.58727 410.313L7.139 410.534C8.39052 413.067 9.80345 415.506 11.3643 417.838L11.7798 417.559C13.3365 419.885 15.0416 422.102 16.8814 424.198L16.5056 424.528C18.3626 426.644 20.3559 428.637 22.4717 430.494L22.8016 430.119C24.8978 431.958 27.1154 433.663 29.4406 435.22L29.1624 435.636C31.4939 437.197 33.9329 438.609 36.4659 439.861L36.6874 439.413C39.1778 440.643 41.7598 441.716 44.4203 442.619L44.2597 443.093C46.9044 443.99 49.6263 444.721 52.4126 445.272L52.5096 444.782C55.2189 445.318 57.9897 445.683 60.8102 445.865L60.778 446.364C62.1737 446.454 63.5816 446.5 65 446.5H69.0179V446H77.0536V446.5H85.0893V446H93.125V446.5H101.161V446H109.196V446.5H117.232V446H125.268V446.5H133.304V446H141.339V446.5H149.375V446H157.411V446.5H165.446V446H173.482V446.5H181.518V446H189.554V446.5H197.589V446H205.625V446.5H213.661V446H221.696V446.5H229.732V446H237.768V446.5H245.804V446H253.839V446.5H261.875V446H269.911V446.5H277.946V446H285.982V446.5H294.018V446H302.054V446.5H310.089V446H318.125V446.5H326.161V446H334.197V446.5H342.232V446H350.268V446.5H358.304V446H366.339V446.5H374.375V446H382.411V446.5H390.446V446H398.482V446.5H406.518V446H414.554V446.5H422.589V446H430.625V446.5H438.661V446H446.696V446.5H454.732V446H462.768V446.5H470.803V446H478.839V446.5H486.875V446H494.911V446.5H502.946V446H510.982V446.5H519.018V446H527.053V446.5H535.089V446H543.125V446.5H551.161V446H559.196V446.5H567.232V446H575.268V446.5H583.303V446H591.339V446.5H599.375V446H607.411V446.5H615.446V446H623.482V446.5H631.518V446H639.553V446.5H647.589V446H655.625V446.5H663.66V446H671.696V446.5H679.732V446H687.768V446.5H695.803V446H703.839V446.5H711.875V446H719.91V446.5H727.946V446H735.982V446.5H740H740.5V446V442.031H740V434.094H740.5V426.156H740V418.219H740.5V410.281H740V402.344H740.5V394.406H740V386.469H740.5V378.531H740V370.594H740.5V362.656H740V354.719H740.5V346.781H740V338.844H740.5V330.906H740V322.969H740.5V315.031H740V307.094H740.5V299.156H740V291.219H740.5V283.281H740V275.344H740.5V267.406H740V259.469H740.5V251.531H740V243.594H740.5V235.656H740V227.719H740.5V219.781H740V211.844H740.5V203.906H740V195.969H740.5V188.031H740V180.094H740.5V172.156H740V164.219H740.5V156.281H740V148.344H740.5V140.406H740V132.469H740.5V124.531H740V116.594H740.5V108.656H740V100.719H740.5V92.7813H740V84.8437H740.5V76.9062H740V68.9688H740.5V65C740.5 63.5816 740.454 62.1737 740.364 60.778L739.865 60.8102C739.683 57.9897 739.318 55.2189 738.782 52.5096L739.272 52.4126C738.721 49.6263 737.99 46.9044 737.093 44.2597L736.619 44.4203C735.716 41.7598 734.643 39.1778 733.413 36.6874L733.861 36.4659C732.609 33.9329 731.197 31.4939 729.636 29.1624L729.22 29.4406C727.663 27.1154 725.958 24.8978 724.119 22.8016L724.494 22.4717C722.637 20.3559 720.644 18.3626 718.528 16.5056L718.198 16.8814C716.102 15.0416 713.885 13.3365 711.559 11.7798L711.838 11.3643C709.506 9.80345 707.067 8.39053 704.534 7.139L704.313 7.58727C701.822 6.35681 699.24 5.28361 696.58 4.38065L696.74 3.90718C694.096 3.00958 691.374 2.27891 688.587 1.72769L688.49 2.21818C685.781 1.6822 683.01 1.31722 680.19 1.13495L680.222 0.635994C678.826 0.545794 677.418 0.5 676 0.5H671.982V1H663.946V0.5H655.911V1H647.875V0.5H639.839V1H631.804V0.5H623.768V1H615.732V0.5H607.696V1H599.661V0.5H591.625V1H583.589V0.5H575.554V1H567.518V0.5H559.482V1H551.446V0.5H543.411V1H535.375V0.5H527.339V1H519.304V0.5H511.268V1H503.232V0.5H495.196V1H487.161V0.5H479.125V1H471.089V0.5H463.054V1H455.018V0.5H446.982V1H438.946V0.5H430.911V1H422.875V0.5H414.839V1H406.803V0.5H398.768V1H390.732V0.5H382.696V1H374.661V0.5H366.625V1H358.589V0.5H350.554V1H342.518V0.5H334.482V1H326.446V0.5H318.411V1H310.375V0.5H302.339V1H294.304V0.5H286.268V1H278.232V0.5H270.197V1H262.161V0.5H254.125V1H246.089V0.5H238.054V1H230.018V0.5H221.982V1H213.947V0.5H205.911V1H197.875V0.5H189.839V1H181.804V0.5H173.768V1H165.732V0.5H157.697V1H149.661V0.5H141.625V1H133.589V0.5H125.554V1H117.518V0.5H109.482V1H101.447V0.5H93.411V1H85.3752V0.5H77.3396V1H69.3038V0.5H61.2681V1H53.2324V0.5H45.1967V1H37.161V0.5H29.1253V1H21.0896V0.5H13.0539V1H5.0182V0.5H1H0.5V1V4.96875H1V12.9062H0.5V20.8438H1V28.7812H0.5V36.7188H1V44.6562H0.5V52.5938H1V60.5312H0.5V68.4688H1V76.4062H0.5V84.3438H1V92.2812H0.5V100.219H1V108.156H0.5V116.094H1V124.031H0.5V131.969H1V139.906H0.5V147.844H1V155.781H0.5V163.719H1V171.656H0.5V179.594H1V187.531H0.5V195.469H1V203.406H0.5V211.344H1V219.281H0.5V227.219H1V235.156H0.5V243.094H1V251.031H0.5V258.969H1V266.906H0.5V274.844H1V282.781H0.5V290.719H1V298.656H0.5V306.594H1V314.531H0.5V322.469H1V330.406H0.5V338.344H1V346.281H0.5V354.219H1V362.156H0.5V370.094H1V378.031H0.5V382Z" fill="#F2F2F2" fill-opacity="0.1"/>
<g clip-path="url(#clip0_8793_82416)">
<path d="M301.122 223.536C300.844 223.257 300.513 223.036 300.149 222.885C299.785 222.734 299.394 222.656 299 222.656C298.606 222.656 298.216 222.734 297.852 222.885C297.488 223.036 297.157 223.257 296.878 223.536L290.038 230.376C290.131 231.63 290.693 232.803 291.613 233.66C292.533 234.518 293.743 234.996 295 235H309C309.98 235 310.938 234.71 311.753 234.167L301.122 223.536Z" fill="#14597A"/>
<path d="M308 219C309.105 219 310 218.105 310 217C310 215.895 309.105 215 308 215C306.896 215 306 215.895 306 217C306 218.105 306.896 219 308 219Z" fill="#14597A"/>
<path d="M309 211H295C293.674 211.002 292.404 211.529 291.466 212.466C290.529 213.404 290.002 214.674 290 216V227.586L295.464 222.122C295.928 221.658 296.48 221.289 297.086 221.038C297.693 220.786 298.343 220.657 299 220.657C299.657 220.657 300.307 220.786 300.914 221.038C301.52 221.289 302.072 221.658 302.536 222.122L313.167 232.753C313.71 231.938 314 230.98 314 230V216C313.998 214.674 313.471 213.404 312.534 212.466C311.596 211.529 310.326 211.002 309 211V211ZM308 221C307.209 221 306.436 220.765 305.778 220.326C305.12 219.886 304.607 219.262 304.304 218.531C304.002 217.8 303.923 216.996 304.077 216.22C304.231 215.444 304.612 214.731 305.172 214.172C305.731 213.612 306.444 213.231 307.22 213.077C307.996 212.923 308.8 213.002 309.531 213.304C310.262 213.607 310.886 214.12 311.326 214.778C311.765 215.436 312 216.209 312 217C312 218.061 311.579 219.078 310.828 219.828C310.078 220.579 309.061 221 308 221Z" fill="#14597A"/>
</g>
<path d="M343.44 228.5L338.2 215.16H335.28L330.04 228.5H332.7L333.68 225.92H339.8L340.78 228.5H343.44ZM339.14 223.86H334.34L336.74 217.5L339.14 223.86ZM353.717 228.5V215.16H351.617V220.18C350.857 219.14 349.737 218.6 348.517 218.6C346.037 218.6 344.237 220.54 344.237 223.66C344.237 226.86 346.057 228.74 348.517 228.74C349.777 228.74 350.877 228.14 351.617 227.18V228.5H353.717ZM349.137 226.88C347.457 226.88 346.397 225.54 346.397 223.66C346.397 221.8 347.457 220.46 349.137 220.46C350.117 220.46 351.157 221.04 351.617 221.76V225.58C351.157 226.3 350.117 226.88 349.137 226.88ZM365.338 228.5V215.16H363.238V220.18C362.478 219.14 361.358 218.6 360.138 218.6C357.658 218.6 355.858 220.54 355.858 223.66C355.858 226.86 357.678 228.74 360.138 228.74C361.398 228.74 362.498 228.14 363.238 227.18V228.5H365.338ZM360.758 226.88C359.078 226.88 358.018 225.54 358.018 223.66C358.018 221.8 359.078 220.46 360.758 220.46C361.738 220.46 362.778 221.04 363.238 221.76V225.58C362.778 226.3 361.738 226.88 360.758 226.88ZM381.235 228.5V222.08C381.235 219.5 379.355 218.6 377.195 218.6C375.655 218.6 374.255 219.08 373.135 220.16L374.015 221.62C374.835 220.78 375.795 220.38 376.875 220.38C378.195 220.38 379.135 221.06 379.135 222.18V223.62C378.415 222.8 377.315 222.38 375.995 222.38C374.415 222.38 372.655 223.3 372.655 225.54C372.655 227.66 374.435 228.74 375.995 228.74C377.275 228.74 378.415 228.28 379.135 227.44V228.5H381.235ZM376.835 227.3C375.655 227.3 374.755 226.62 374.755 225.56C374.755 224.52 375.655 223.82 376.835 223.82C377.735 223.82 378.635 224.16 379.135 224.82V226.3C378.635 226.96 377.735 227.3 376.835 227.3ZM391.214 225.6V221.76C391.694 221.04 392.714 220.46 393.714 220.46C395.374 220.46 396.434 221.8 396.434 223.66C396.434 225.54 395.374 226.88 393.714 226.88C392.714 226.88 391.694 226.32 391.214 225.6ZM391.214 228.5V227.18C391.954 228.14 393.074 228.74 394.314 228.74C396.794 228.74 398.614 226.86 398.614 223.66C398.614 220.54 396.814 218.6 394.314 218.6C393.114 218.6 391.994 219.14 391.214 220.18V215.16H389.114V228.5H391.214ZM408.755 228.5V222.08C408.755 219.5 406.875 218.6 404.715 218.6C403.175 218.6 401.775 219.08 400.655 220.16L401.535 221.62C402.355 220.78 403.315 220.38 404.395 220.38C405.715 220.38 406.655 221.06 406.655 222.18V223.62C405.935 222.8 404.835 222.38 403.515 222.38C401.935 222.38 400.175 223.3 400.175 225.54C400.175 227.66 401.955 228.74 403.515 228.74C404.795 228.74 405.935 228.28 406.655 227.44V228.5H408.755ZM404.355 227.3C403.175 227.3 402.275 226.62 402.275 225.56C402.275 224.52 403.175 223.82 404.355 223.82C405.255 223.82 406.155 224.16 406.655 224.82V226.3C406.155 226.96 405.255 227.3 404.355 227.3ZM420.117 228.5V221.7C420.117 219.72 419.077 218.6 416.997 218.6C415.477 218.6 414.217 219.38 413.577 220.14V218.84H411.477V228.5H413.577V221.74C414.077 221.1 414.997 220.46 416.057 220.46C417.237 220.46 418.017 220.94 418.017 222.46V228.5H420.117ZM431.484 228.5V221.7C431.484 219.72 430.444 218.6 428.364 218.6C426.844 218.6 425.584 219.38 424.944 220.14V218.84H422.844V228.5H424.944V221.74C425.444 221.1 426.364 220.46 427.424 220.46C428.604 220.46 429.384 220.94 429.384 222.46V228.5H431.484ZM438.692 228.74C440.212 228.74 441.632 228.24 442.612 227.32L441.652 225.94C440.952 226.64 439.852 227.02 438.892 227.02C437.072 227.02 435.992 225.8 435.832 224.36H443.272V223.84C443.272 220.8 441.432 218.6 438.532 218.6C435.672 218.6 433.632 220.86 433.632 223.66C433.632 226.72 435.772 228.74 438.692 228.74ZM441.252 222.86H435.812C435.892 221.7 436.732 220.32 438.512 220.32C440.412 220.32 441.192 221.72 441.252 222.86ZM447.444 228.5V221.92C447.864 221.22 449.044 220.62 449.944 220.62C450.204 220.62 450.404 220.64 450.584 220.68V218.6C449.344 218.6 448.184 219.32 447.444 220.24V218.84H445.344V228.5H447.444Z" fill="#14597A"/>
<path d="M0.5 382C0.5 383.418 0.545794 384.826 0.635994 386.222L1.13495 386.19C1.31722 389.01 1.6822 391.781 2.21818 394.49L1.72769 394.587C2.2789 397.374 3.00958 400.096 3.90717 402.74L4.38065 402.58C5.28361 405.24 6.35681 407.822 7.58727 410.313L7.139 410.534C8.39052 413.067 9.80345 415.506 11.3643 417.838L11.7798 417.559C13.3365 419.885 15.0416 422.102 16.8814 424.198L16.5056 424.528C18.3626 426.644 20.3559 428.637 22.4717 430.494L22.8016 430.119C24.8978 431.958 27.1154 433.663 29.4406 435.22L29.1624 435.636C31.4939 437.197 33.9329 438.609 36.4659 439.861L36.6874 439.413C39.1778 440.643 41.7598 441.716 44.4203 442.619L44.2597 443.093C46.9044 443.99 49.6263 444.721 52.4126 445.272L52.5096 444.782C55.2189 445.318 57.9897 445.683 60.8102 445.865L60.778 446.364C62.1737 446.454 63.5816 446.5 65 446.5H69.0179V446H77.0536V446.5H85.0893V446H93.125V446.5H101.161V446H109.196V446.5H117.232V446H125.268V446.5H133.304V446H141.339V446.5H149.375V446H157.411V446.5H165.446V446H173.482V446.5H181.518V446H189.554V446.5H197.589V446H205.625V446.5H213.661V446H221.696V446.5H229.732V446H237.768V446.5H245.804V446H253.839V446.5H261.875V446H269.911V446.5H277.946V446H285.982V446.5H294.018V446H302.054V446.5H310.089V446H318.125V446.5H326.161V446H334.197V446.5H342.232V446H350.268V446.5H358.304V446H366.339V446.5H374.375V446H382.411V446.5H390.446V446H398.482V446.5H406.518V446H414.554V446.5H422.589V446H430.625V446.5H438.661V446H446.696V446.5H454.732V446H462.768V446.5H470.803V446H478.839V446.5H486.875V446H494.911V446.5H502.946V446H510.982V446.5H519.018V446H527.053V446.5H535.089V446H543.125V446.5H551.161V446H559.196V446.5H567.232V446H575.268V446.5H583.303V446H591.339V446.5H599.375V446H607.411V446.5H615.446V446H623.482V446.5H631.518V446H639.553V446.5H647.589V446H655.625V446.5H663.66V446H671.696V446.5H679.732V446H687.768V446.5H695.803V446H703.839V446.5H711.875V446H719.91V446.5H727.946V446H735.982V446.5H740H740.5V446V442.031H740V434.094H740.5V426.156H740V418.219H740.5V410.281H740V402.344H740.5V394.406H740V386.469H740.5V378.531H740V370.594H740.5V362.656H740V354.719H740.5V346.781H740V338.844H740.5V330.906H740V322.969H740.5V315.031H740V307.094H740.5V299.156H740V291.219H740.5V283.281H740V275.344H740.5V267.406H740V259.469H740.5V251.531H740V243.594H740.5V235.656H740V227.719H740.5V219.781H740V211.844H740.5V203.906H740V195.969H740.5V188.031H740V180.094H740.5V172.156H740V164.219H740.5V156.281H740V148.344H740.5V140.406H740V132.469H740.5V124.531H740V116.594H740.5V108.656H740V100.719H740.5V92.7813H740V84.8437H740.5V76.9062H740V68.9688H740.5V65C740.5 63.5816 740.454 62.1737 740.364 60.778L739.865 60.8102C739.683 57.9897 739.318 55.2189 738.782 52.5096L739.272 52.4126C738.721 49.6263 737.99 46.9044 737.093 44.2597L736.619 44.4203C735.716 41.7598 734.643 39.1778 733.413 36.6874L733.861 36.4659C732.609 33.9329 731.197 31.4939 729.636 29.1624L729.22 29.4406C727.663 27.1154 725.958 24.8978 724.119 22.8016L724.494 22.4717C722.637 20.3559 720.644 18.3626 718.528 16.5056L718.198 16.8814C716.102 15.0416 713.885 13.3365 711.559 11.7798L711.838 11.3643C709.506 9.80345 707.067 8.39053 704.534 7.139L704.313 7.58727C701.822 6.35681 699.24 5.28361 696.58 4.38065L696.74 3.90718C694.096 3.00958 691.374 2.27891 688.587 1.72769L688.49 2.21818C685.781 1.6822 683.01 1.31722 680.19 1.13495L680.222 0.635994C678.826 0.545794 677.418 0.5 676 0.5H671.982V1H663.946V0.5H655.911V1H647.875V0.5H639.839V1H631.804V0.5H623.768V1H615.732V0.5H607.696V1H599.661V0.5H591.625V1H583.589V0.5H575.554V1H567.518V0.5H559.482V1H551.446V0.5H543.411V1H535.375V0.5H527.339V1H519.304V0.5H511.268V1H503.232V0.5H495.196V1H487.161V0.5H479.125V1H471.089V0.5H463.054V1H455.018V0.5H446.982V1H438.946V0.5H430.911V1H422.875V0.5H414.839V1H406.803V0.5H398.768V1H390.732V0.5H382.696V1H374.661V0.5H366.625V1H358.589V0.5H350.554V1H342.518V0.5H334.482V1H326.446V0.5H318.411V1H310.375V0.5H302.339V1H294.304V0.5H286.268V1H278.232V0.5H270.197V1H262.161V0.5H254.125V1H246.089V0.5H238.054V1H230.018V0.5H221.982V1H213.947V0.5H205.911V1H197.875V0.5H189.839V1H181.804V0.5H173.768V1H165.732V0.5H157.697V1H149.661V0.5H141.625V1H133.589V0.5H125.554V1H117.518V0.5H109.482V1H101.447V0.5H93.411V1H85.3752V0.5H77.3396V1H69.3038V0.5H61.2681V1H53.2324V0.5H45.1967V1H37.161V0.5H29.1253V1H21.0896V0.5H13.0539V1H5.0182V0.5H1H0.5V1V4.96875H1V12.9062H0.5V20.8438H1V28.7812H0.5V36.7188H1V44.6562H0.5V52.5938H1V60.5312H0.5V68.4688H1V76.4062H0.5V84.3438H1V92.2812H0.5V100.219H1V108.156H0.5V116.094H1V124.031H0.5V131.969H1V139.906H0.5V147.844H1V155.781H0.5V163.719H1V171.656H0.5V179.594H1V187.531H0.5V195.469H1V203.406H0.5V211.344H1V219.281H0.5V227.219H1V235.156H0.5V243.094H1V251.031H0.5V258.969H1V266.906H0.5V274.844H1V282.781H0.5V290.719H1V298.656H0.5V306.594H1V314.531H0.5V322.469H1V330.406H0.5V338.344H1V346.281H0.5V354.219H1V362.156H0.5V370.094H1V378.031H0.5V382Z" stroke="#F2F2F2" stroke-dasharray="8 8"/>
<defs>
<clipPath id="clip0_8793_82416">
<rect width="24" height="24" fill="white" transform="translate(290 211)"/>
</clipPath>
</defs>
</svg>
